<svg xmlns="http://www.w3.org/2000/svg" viewBox="0 0 64 64" width="64" height="64">
  <defs>
    <linearGradient id="sea" x1="6" y1="0" x2="58" y2="64" gradientUnits="userSpaceOnUse">
      <stop offset="0" stop-color="#11466f"></stop><stop offset=".5" stop-color="#0b2f4d"></stop><stop offset="1" stop-color="#061b2e"></stop>
    </linearGradient>
    <radialGradient id="glow" cx="47" cy="13" r="42" gradientUnits="userSpaceOnUse">
      <stop offset="0" stop-color="#8cdceb" stop-opacity=".3"></stop><stop offset="1" stop-color="#8cdceb" stop-opacity="0"></stop>
    </radialGradient>
    <radialGradient id="head" cx="24" cy="18" r="28" gradientUnits="userSpaceOnUse">
      <stop offset="0" stop-color="#ffe0e9"></stop><stop offset="1" stop-color="#ff6f91"></stop>
    </radialGradient>
  </defs>
  <rect width="64" height="64" rx="14" fill="url(#sea)"></rect>
  <rect width="64" height="64" rx="14" fill="url(#glow)"></rect>
  <ellipse cx="32" cy="53" rx="15" ry="3" fill="#000" opacity=".2"></ellipse>
  <path d="M18 40c-5 3.4-8 9-6.4 15" fill="none" stroke="#ff9ab3" stroke-width="5.4" stroke-linecap="round"></path>
  <path d="M23 43c-2.6 4-3 9 .2 13.6" fill="none" stroke="#ff9ab3" stroke-width="5.4" stroke-linecap="round"></path>
  <path d="M28 45c-.8 4.4.6 9 4 12" fill="none" stroke="#ffaec3" stroke-width="5.2" stroke-linecap="round"></path>
  <path d="M36 45c.8 4.4-.6 9-4 12" fill="none" stroke="#ffaec3" stroke-width="5.2" stroke-linecap="round"></path>
  <path d="M41 43c2.6 4 3 9-.2 13.6" fill="none" stroke="#ff9ab3" stroke-width="5.4" stroke-linecap="round"></path>
  <path d="M46 40c5 3.4 7.6 8.6 6.6 14.2" fill="none" stroke="#ff9ab3" stroke-width="5.4" stroke-linecap="round"></path>
  <ellipse cx="22" cy="50" rx="1.3" ry=".9" fill="#fff0f4" opacity=".9" transform="rotate(30 22 50)"></ellipse>
  <ellipse cx="27" cy="53" rx="1.3" ry=".9" fill="#fff0f4" opacity=".9" transform="rotate(10 27 53)"></ellipse>
  <ellipse cx="37" cy="53" rx="1.3" ry=".9" fill="#fff0f4" opacity=".9" transform="rotate(-10 37 53)"></ellipse>
  <ellipse cx="42" cy="50" rx="1.3" ry=".9" fill="#fff0f4" opacity=".9" transform="rotate(-30 42 50)"></ellipse>
  <path d="M32 12c8.5 0 15.5 6.6 15.5 14.7 0 5.4-3.1 10-7.7 12.3 1 1.6.9 3.2-.3 4.6H24.5c-1.2-1.4-1.3-3-.3-4.6-4.6-2.3-7.7-6.9-7.7-12.3C16.5 18.6 23.5 12 32 12Z" fill="url(#head)"></path>
  <ellipse cx="25.5" cy="19.5" rx="4.6" ry="3.2" fill="#fff" opacity=".4" transform="rotate(-25 25.5 19.5)"></ellipse>
  <path d="M22 25.2q3.5 2.4 7 0" fill="none" stroke="#7a1f38" stroke-width="1.8" stroke-linecap="round"></path>
  <ellipse cx="38.5" cy="24.6" rx="4.8" ry="5.3" fill="#fff"></ellipse>
  <circle cx="39.5" cy="25.4" r="2.9" fill="#5c1428"></circle>
  <circle cx="38.2" cy="23.6" r="1.1" fill="#fff"></circle>
  <ellipse cx="19.5" cy="30" rx="3" ry="2" fill="#ff5c82" opacity=".55"></ellipse>
  <ellipse cx="44.5" cy="30" rx="3" ry="2" fill="#ff5c82" opacity=".55"></ellipse>
  <path d="M28.6 34q3.4 2.6 6.8 0" fill="none" stroke="#7a1f38" stroke-width="1.4" stroke-linecap="round"></path>
</svg>
